<svg width="14" height="14" viewBox="0 0 14 14" fill="none" xmlns="http://www.w3.org/2000/svg">
<g id="Group">
<path id="Vector" fill-rule="evenodd" clip-rule="evenodd" d="M7 8.76747L11.4192 13.1875C11.6537 13.422 11.9717 13.5537 12.3033 13.5537C12.635 13.5537 12.953 13.422 13.1875 13.1875C13.422 12.953 13.5537 12.6349 13.5537 12.3033C13.5537 11.9717 13.422 11.6536 13.1875 11.4191L8.76667 6.99997L13.1867 2.5808C13.3027 2.46469 13.3948 2.32686 13.4576 2.17518C13.5203 2.02349 13.5526 1.86092 13.5526 1.69676C13.5526 1.53259 13.5202 1.37004 13.4573 1.21839C13.3945 1.06673 13.3024 0.928942 13.1863 0.812886C13.0701 0.696831 12.9323 0.604781 12.7806 0.541993C12.6289 0.479205 12.4664 0.446909 12.3022 0.446947C12.138 0.446986 11.9755 0.479359 11.8238 0.542218C11.6722 0.605078 11.5344 0.697193 11.4183 0.813303L7 5.23247L2.58083 0.813303C2.46558 0.693862 2.3277 0.598571 2.17522 0.532989C2.02275 0.467406 1.85874 0.432847 1.69277 0.431327C1.52679 0.429807 1.36218 0.461357 1.20853 0.524135C1.05488 0.586914 0.915274 0.679664 0.797853 0.796974C0.680433 0.914284 0.587551 1.05381 0.524627 1.2074C0.461704 1.36099 0.429999 1.52557 0.431362 1.69154C0.432726 1.85752 0.46713 2.02156 0.532569 2.17409C0.598007 2.32663 0.693169 2.4646 0.812501 2.57997L5.23333 6.99997L0.813334 11.4191C0.578839 11.6536 0.4471 11.9717 0.4471 12.3033C0.4471 12.6349 0.578839 12.953 0.813334 13.1875C1.04783 13.422 1.36587 13.5537 1.6975 13.5537C2.02913 13.5537 2.34717 13.422 2.58167 13.1875L7 8.76664V8.76747Z" fill="#707E8C"/>
</g>
</svg>
